Coordinates
version=1
nRows=19
nColumns=24
inDegrees=yes

Units are S.I. units (second, meters, Newtons, ...)
Angles are in degrees.

endheader
time	pelvis_tilt	pelvis_list	pelvis_rotation	pelvis_tx	pelvis_ty	pelvis_tz	hip_flexion_r	hip_adduction_r	hip_rotation_r	knee_angle_r	ankle_angle_r	subtalar_angle_r	mtp_angle_r	hip_flexion_l	hip_adduction_l	hip_rotation_l	knee_angle_l	ankle_angle_l	subtalar_angle_l	mtp_angle_l	lumbar_extension	lumbar_bending	lumbar_rotation
      0.30400000	     -3.21100437	      4.30966171	     -3.31004013	     -0.87973267	      1.03862826	      0.29078172	     31.01685187	     -1.92287209	     -2.50622237	     -8.20656878	      6.09806648	      2.17447072	      9.31993732	    -10.94501802	      6.31256516	      0.15353491	     -6.87967134	     20.06948358	      8.28633827	      1.64384833	     -9.78629997	     -5.36282833	     -1.99328534
      0.30816667	     -3.14625923	      4.27014432	     -3.23767473	     -0.87353871	      1.03774401	      0.29103196	     30.96937237	     -1.83407341	     -2.29311200	     -8.57419902	      6.05861398	      2.01002969	      9.32992822	    -11.14770559	      6.25421297	      0.13156192	     -7.39744597	     20.29526973	      8.44268905	      1.67380374	     -9.82927913	     -5.22954157	     -2.01036364
      0.31233333	     -3.13053804	      4.22910761	     -3.15957756	     -0.86729384	      1.03679772	      0.29129638	     30.96944600	     -1.74039646	     -2.05264730	     -8.99696502	      5.97132312	      1.77799889	      9.35181767	    -11.25841076	      6.18413680	      0.04924741	     -8.00360528	     20.54882356	      8.68821622	      1.72854060	     -9.80040614	     -5.09289769	     -2.01892886
      0.31650000	     -3.08781598	      4.18458851	     -3.08024652	     -0.86102256	      1.03592969	      0.29155880	     30.93594397	     -1.64760705	     -1.81256212	     -9.46801659	      5.84907729	      1.52580135	      9.38495417	    -11.38653279	      6.10913627	     -0.02634152	     -8.63345057	     20.77288531	      8.92924001	      1.80699415	     -9.81071211	     -4.94708006	     -2.02844661
      0.32066667	     -3.06490671	      4.13731682	     -2.99448503	     -0.85470429	      1.03504951	      0.29182041	     30.91910108	     -1.55355246	     -1.57075792	     -9.98232499	      5.66920869	      1.21650779	      9.42510525	    -11.47249227	      6.02397540	     -0.12492005	     -9.31957892	     20.98713193	      9.19691699	      1.90482546	     -9.78698789	     -4.79601457	     -2.04343331
      0.32483333	     -3.04064620	      4.08249170	     -2.90584919	     -0.84837055	      1.03421838	      0.29209260	     30.89108532	     -1.45225398	     -1.31592689	    -10.52106349	      5.42601864	      0.84813843	      9.47307040	    -11.52776534	      5.92343907	     -0.26310395	    -10.06908503	     21.18832488	      9.51755382	      2.03114372	     -9.76540874	     -4.63379999	     -2.05325432
      0.32900000	     -3.00033187	      4.02612548	     -2.81413217	     -0.84202167	      1.03344690	      0.29236969	     30.84184586	     -1.35341329	     -1.06850524	    -11.08795623	      5.13652644	      0.45650580	      9.53058941	    -11.57803105	      5.81469228	     -0.42112833	    -10.86426057	     21.36708879	      9.87286171	      2.19313200	     -9.76556454	     -4.46940397	     -2.06909870
      0.33316667	     -2.97987228	      3.96986407	     -2.71775882	     -0.83563642	      1.03266715	      0.29264709	     30.81296210	     -1.25643088	     -0.83058657	    -11.68629182	      4.79505553	      0.03024986	      9.58906266	    -11.58383720	      5.69890303	     -0.58704688	    -11.71826973	     21.52008863	     10.22813873	      2.37860682	     -9.73003677	     -4.30257769	     -2.07869671
      0.33733333	     -2.95276392	      3.90268555	     -2.61861220	     -0.82924169	      1.03195358	      0.29293466	     30.76620326	     -1.14992706	     -0.59123068	    -12.28879313	      4.39448224	     -0.44105389	      9.65100209	    -11.56738247	      5.56145449	     -0.80140068	    -12.62909713	     21.65018480	     10.65120688	      2.60079995	     -9.70852109	     -4.12153033	     -2.08727824
      0.34150000	     -2.95085575	      3.84197900	     -2.51538362	     -0.82283287	      1.03123843	      0.29323502	     30.74910505	     -1.05127285	     -0.36420689	    -12.91561995	      3.95790980	     -0.91907000	      9.71645669	    -11.48906290	      5.41958228	     -1.03977531	    -13.61085766	     21.75041574	     11.10386071	      2.86943936	     -9.64882126	     -3.94883581	     -2.09620884
      0.34566667	     -2.94580977	      3.78047975	     -2.41279127	     -0.81642937	      1.03056285	      0.29354876	     30.73133468	     -0.95337300	     -0.14670095	    -13.56165854	      3.48798481	     -1.41286608	      9.77660812	    -11.38461171	      5.26758142	     -1.30346635	    -14.64953959	     21.81146021	     11.58448569	      3.17586286	     -9.60054402	     -3.77430628	     -2.09760341
      0.34983333	     -2.92046955	      3.69335244	     -2.30212553	     -0.80998437	      1.02999862	      0.29384781	     30.67678119	     -0.83964745	      0.03807030	    -14.20017523	      2.98205803	     -1.92777964	      9.82600061	    -11.27946570	      5.07898819	     -1.57589226	    -15.74062740	     21.83249757	     12.07509994	      3.50222600	     -9.57049286	     -3.56693938	     -2.09707016
      0.35400000	     -2.88643075	      3.61597167	     -2.19801153	     -0.80359756	      1.02947013	      0.29418568	     30.62862022	     -0.73368357	      0.21833599	    -14.87114947	      2.48021741	     -2.42974920	      9.87188104	    -11.14391309	      4.88660622	     -1.90155008	    -16.90038415	     21.80586525	     12.62366616	      3.90796114	     -9.55519240	     -3.37610476	     -2.09024676
      0.35816667	     -2.88066719	      3.55370732	     -2.08488655	     -0.79718498	      1.02894820	      0.29450307	     30.63005315	     -0.65674825	      0.31695936	    -15.59339791	      2.04141804	     -2.79171810	     10.29639211	    -10.95294736	      4.70108015	     -2.20279198	    -18.09519140	     21.64540918	     13.13720792	      8.01971850	     -9.51421605	     -3.22321056	     -2.01777091
      0.36233333	     -2.85797693	      3.46041389	     -1.97308186	     -0.79079172	      1.02854226	      0.29485688	     30.58291253	     -0.53896889	      0.49500488	    -16.26000126	      1.50288076	     -3.37035159	     10.27058019	    -10.74962640	      4.47616083	     -2.48446961	    -19.35354362	     21.47439180	     13.57870133	      8.11614012	     -9.47855804	     -2.99829289	     -2.07158683
      0.36650000	     -2.85119768	      3.36995250	     -1.85734622	     -0.78439792	      1.02815007	      0.29521958	     30.57167956	     -0.43399782	      0.60097667	    -16.97595885	      1.06467231	     -3.80191224	     10.23835583	    -10.48297326	      4.23194409	     -2.83458255	    -20.69849089	     21.27772137	     14.14895325	      8.28315327	     -9.42740675	     -2.79964026	     -2.04709760
      0.37066667	     -2.79458372	      3.26908323	     -1.75275543	     -0.77805154	      1.02789992	      0.29560835	     30.51214824	     -0.31943867	      0.69167246	    -17.70561331	      0.66956589	     -4.21187947	      9.83573656	    -10.24607306	      3.96674818	     -3.19583946	    -22.06616472	     20.93702533	     14.70657018	     11.01052961	     -9.45543057	     -2.59429974	     -1.96046877
      0.37483333	     -2.77977882	      3.16678664	     -1.63038197	     -0.77171798	      1.02763772	      0.29598328	     30.49853817	     -0.21179886	      0.75589993	    -18.44692788	      0.34864095	     -4.58386300	      9.81259518	     -9.91946438	      3.68665590	     -3.52859802	    -23.51983671	     20.59870526	     15.22844388	     11.09516425	     -9.41456021	     -2.37452536	     -1.99696382
      0.37900000	     -2.74515779	      3.05115055	     -1.51864178	     -0.76539374	      1.02747572	      0.29638856	     30.46305915	     -0.09037617	      0.79981463	    -19.19368338	      0.08490669	     -4.92240780	      9.77642645	     -9.58800177	      3.37845058	     -3.88828671	    -25.01419822	     20.16369068	     15.78396126	     11.24741716	     -9.40807324	     -2.15003359	     -1.96107177
